<svg width="256" xmlns="http://www.w3.org/2000/svg" height="256" fill="none"><defs><clipPath id="a" class="frame-clip frame-clip-def"><rect rx="0" ry="0" width="256" height="256" transform="matrix(1.000000, 0.000000, 0.000000, 1.000000, 0.000000, 0.000000)"/></clipPath></defs><g clip-path="url(#a)"><g class="fills"><rect width="256" height="256" class="frame-background" transform="matrix(1.000000, 0.000000, 0.000000, 1.000000, 0.000000, 0.000000)" style="fill: rgb(255, 255, 255); fill-opacity: 0;" ry="0" rx="0" fill="none"/></g><g class="frame-children"><defs><clipPath id="b" class="frame-clip frame-clip-def"><rect rx="0" ry="0" width="256" height="256" transform="matrix(1.000000, 0.000000, 0.000000, 1.000000, 0.000000, 0.000000)"/></clipPath></defs><g clip-path="url(#b)"><g class="fills"><rect width="256" height="256" class="frame-background" transform="matrix(1.000000, 0.000000, 0.000000, 1.000000, 0.000000, 0.000000)" style="fill: rgb(255, 255, 255); fill-opacity: 0;" ry="0" rx="0" fill="none"/></g><g class="frame-children"><rect rx="0" ry="0" transform="matrix(1.000000, 0.000000, 0.000000, 1.000000, 0.000000, 0.000000)" width="256" height="256" style="fill: rgb(17, 17, 17); fill-opacity: 1;" class="fills"/><g class="fills"><rect width="192" height="192" class="frame-background" x="32" transform="matrix(1.000000, 0.000000, 0.000000, 1.000000, 0.000000, 0.000000)" style="fill: rgb(255, 255, 255); fill-opacity: 0;" ry="0" rx="0" y="32" fill="none"/></g><g class="frame-children"><rect rx="0" ry="0" x="137.6" y="137.6" transform="matrix(1.000000, 0.000000, 0.000000, 1.000000, 0.000000, 0.000000)" width="76.8" height="76.8" style="fill: rgb(28, 124, 246); fill-opacity: 1;" class="fills"/><path d="M80.000,137.600L118.400,214.400L41.600,214.400L80.000,137.600Z" style="fill: rgb(217, 74, 29); fill-opacity: 1;" class="fills"/><ellipse cx="128" cy="80" rx="38.4" ry="38.4" transform="matrix(1.000000, 0.000000, 0.000000, 1.000000, 0.000000, 0.000000)" style="fill: rgb(230, 186, 44); fill-opacity: 1;" class="fills"/></g></g></g></g></g></svg>